<mxfile host="app.diagrams.net" modified="2023-07-30T14:34:08.704Z" agent="Mozilla/5.0 (Macintosh; Intel Mac OS X 10_15_7) AppleWebKit/537.36 (KHTML, like Gecko) Chrome/115.0.0.0 Safari/537.36" etag="BTVpY5XhyXkIm2sm0tSQ" version="21.6.6" type="github">
  <diagram name="Version-1" id="Y2WjuvX7hO9Vn0jHDt_I">
    <mxGraphModel dx="2074" dy="1072" grid="0" gridSize="10" guides="1" tooltips="1" connect="1" arrows="1" fold="1" page="1" pageScale="1" pageWidth="1400" pageHeight="850" math="0" shadow="0">
      <root>
        <mxCell id="0" />
        <mxCell id="1" parent="0" />
        <mxCell id="fa2TgRjNBBgpzOrha1pa-1" value="&lt;b&gt;&lt;font color=&quot;#97d077&quot;&gt;UIViewController&lt;/font&gt;&lt;/b&gt;" style="rounded=0;whiteSpace=wrap;html=1;strokeWidth=4;fillColor=none;strokeColor=#82b366;" parent="1" vertex="1">
          <mxGeometry x="709" y="580" width="140" height="44" as="geometry" />
        </mxCell>
        <mxCell id="fa2TgRjNBBgpzOrha1pa-2" value="&lt;font color=&quot;#a680b8&quot;&gt;FeedViewController&lt;/font&gt;" style="rounded=0;whiteSpace=wrap;html=1;fillColor=none;strokeColor=#9673a6;strokeWidth=4;" parent="1" vertex="1">
          <mxGeometry x="709" y="469" width="140" height="44" as="geometry" />
        </mxCell>
        <mxCell id="fa2TgRjNBBgpzOrha1pa-3" value="&lt;font color=&quot;#a680b8&quot;&gt;&amp;lt;Feed Feature&amp;gt;&lt;/font&gt;" style="rounded=0;whiteSpace=wrap;html=1;fillColor=none;strokeColor=#9673a6;strokeWidth=4;" parent="1" vertex="1">
          <mxGeometry x="715" y="376" width="120" height="39" as="geometry" />
        </mxCell>
        <mxCell id="fa2TgRjNBBgpzOrha1pa-4" value="" style="endArrow=classic;html=1;rounded=0;entryX=0.417;entryY=1.103;entryDx=0;entryDy=0;entryPerimeter=0;strokeColor=#B5739D;strokeWidth=2;" parent="1" edge="1">
          <mxGeometry width="50" height="50" relative="1" as="geometry">
            <mxPoint x="773" y="466" as="sourcePoint" />
            <mxPoint x="773.04" y="416.01700000000005" as="targetPoint" />
          </mxGeometry>
        </mxCell>
        <mxCell id="fa2TgRjNBBgpzOrha1pa-6" value="&lt;font color=&quot;#ff3333&quot;&gt;LocalFeedLoader&lt;/font&gt;" style="rounded=0;whiteSpace=wrap;html=1;fillColor=none;strokeColor=#B20000;strokeWidth=4;fontColor=#ffffff;" parent="1" vertex="1">
          <mxGeometry x="835" y="240" width="120" height="39" as="geometry" />
        </mxCell>
        <mxCell id="fa2TgRjNBBgpzOrha1pa-7" value="" style="html=1;labelBackgroundColor=#ffffff;startArrow=none;startFill=0;startSize=6;endArrow=block;endFill=0;endSize=6;jettySize=auto;orthogonalLoop=1;strokeWidth=2;dashed=1;fontSize=14;rounded=0;exitX=0.5;exitY=1;exitDx=0;exitDy=0;entryX=1;entryY=0.5;entryDx=0;entryDy=0;strokeColor=#FF3333;" parent="1" source="fa2TgRjNBBgpzOrha1pa-6" target="fa2TgRjNBBgpzOrha1pa-3" edge="1">
          <mxGeometry width="60" height="60" relative="1" as="geometry">
            <mxPoint x="859" y="479" as="sourcePoint" />
            <mxPoint x="919" y="419" as="targetPoint" />
            <Array as="points">
              <mxPoint x="897" y="396" />
            </Array>
          </mxGeometry>
        </mxCell>
        <mxCell id="fa2TgRjNBBgpzOrha1pa-8" value="" style="html=1;labelBackgroundColor=#ffffff;startArrow=none;startFill=0;startSize=6;endArrow=block;endFill=0;endSize=6;jettySize=auto;orthogonalLoop=1;strokeWidth=2;dashed=1;fontSize=14;rounded=0;entryX=0;entryY=0.5;entryDx=0;entryDy=0;strokeColor=#0066CC;exitX=0.865;exitY=1.051;exitDx=0;exitDy=0;exitPerimeter=0;" parent="1" target="fa2TgRjNBBgpzOrha1pa-3" edge="1" source="8nE0R6XnKWqMKPDeoMGo-2">
          <mxGeometry width="60" height="60" relative="1" as="geometry">
            <mxPoint x="637" y="301" as="sourcePoint" />
            <mxPoint x="577" y="396" as="targetPoint" />
            <Array as="points">
              <mxPoint x="639" y="396" />
            </Array>
          </mxGeometry>
        </mxCell>
        <mxCell id="fa2TgRjNBBgpzOrha1pa-9" value="" style="endArrow=block;html=1;rounded=0;strokeColor=#B5739D;strokeWidth=2;endFill=0;exitX=0.457;exitY=1.068;exitDx=0;exitDy=0;exitPerimeter=0;endSize=8;startSize=6;" parent="1" edge="1">
          <mxGeometry width="50" height="50" relative="1" as="geometry">
            <mxPoint x="772.98" y="514.992" as="sourcePoint" />
            <mxPoint x="774.5" y="579" as="targetPoint" />
          </mxGeometry>
        </mxCell>
        <mxCell id="fa2TgRjNBBgpzOrha1pa-10" value="&lt;font color=&quot;#b46504&quot;&gt;RemoteWithLocalFallbackFeedLoader&lt;/font&gt;" style="rounded=0;whiteSpace=wrap;html=1;fillColor=none;strokeColor=#b46504;strokeWidth=4;" parent="1" vertex="1">
          <mxGeometry x="647" y="147" width="239" height="39" as="geometry" />
        </mxCell>
        <mxCell id="fa2TgRjNBBgpzOrha1pa-11" value="" style="html=1;labelBackgroundColor=#ffffff;startArrow=none;startFill=0;startSize=6;endArrow=block;endFill=0;endSize=6;jettySize=auto;orthogonalLoop=1;strokeWidth=2;dashed=1;fontSize=14;rounded=0;exitX=0.5;exitY=1;exitDx=0;exitDy=0;strokeColor=#B46504;" parent="1" source="fa2TgRjNBBgpzOrha1pa-10" edge="1">
          <mxGeometry width="60" height="60" relative="1" as="geometry">
            <mxPoint x="767" y="190" as="sourcePoint" />
            <mxPoint x="769" y="373" as="targetPoint" />
            <Array as="points">
              <mxPoint x="769" y="307" />
            </Array>
          </mxGeometry>
        </mxCell>
        <mxCell id="fa2TgRjNBBgpzOrha1pa-12" value="" style="endArrow=classic;html=1;rounded=0;exitX=0.155;exitY=1.026;exitDx=0;exitDy=0;exitPerimeter=0;strokeWidth=2;strokeColor=#B46504;entryX=0.886;entryY=0.051;entryDx=0;entryDy=0;entryPerimeter=0;" parent="1" edge="1">
          <mxGeometry width="50" height="50" relative="1" as="geometry">
            <mxPoint x="684.0450000000001" y="184.0139999999999" as="sourcePoint" />
            <mxPoint x="639.998" y="253.98900000000003" as="targetPoint" />
            <Array as="points">
              <mxPoint x="684" y="208" />
              <mxPoint x="640" y="208" />
            </Array>
          </mxGeometry>
        </mxCell>
        <mxCell id="fa2TgRjNBBgpzOrha1pa-13" value="" style="endArrow=classic;html=1;rounded=0;exitX=0.155;exitY=1.026;exitDx=0;exitDy=0;exitPerimeter=0;strokeWidth=2;strokeColor=#B46504;entryX=0.567;entryY=-0.051;entryDx=0;entryDy=0;entryPerimeter=0;" parent="1" target="fa2TgRjNBBgpzOrha1pa-6" edge="1">
          <mxGeometry width="50" height="50" relative="1" as="geometry">
            <mxPoint x="849" y="188" as="sourcePoint" />
            <mxPoint x="805" y="241" as="targetPoint" />
            <Array as="points">
              <mxPoint x="849" y="212" />
              <mxPoint x="903" y="212" />
            </Array>
          </mxGeometry>
        </mxCell>
        <mxCell id="fa2TgRjNBBgpzOrha1pa-14" style="edgeStyle=orthogonalEdgeStyle;rounded=0;orthogonalLoop=1;jettySize=auto;html=1;strokeWidth=2;dashed=1;strokeColor=#0405ff;" parent="1" edge="1">
          <mxGeometry relative="1" as="geometry">
            <Array as="points">
              <mxPoint x="1151" y="72" />
              <mxPoint x="474" y="72" />
              <mxPoint x="474" y="170" />
              <mxPoint x="551" y="170" />
            </Array>
            <mxPoint x="1151" y="145" as="sourcePoint" />
            <mxPoint x="551" y="253" as="targetPoint" />
          </mxGeometry>
        </mxCell>
        <mxCell id="fa2TgRjNBBgpzOrha1pa-15" style="edgeStyle=orthogonalEdgeStyle;rounded=0;orthogonalLoop=1;jettySize=auto;html=1;entryX=1;entryY=0.5;entryDx=0;entryDy=0;strokeWidth=2;dashed=1;strokeColor=#0405ff;" parent="1" source="fa2TgRjNBBgpzOrha1pa-18" target="fa2TgRjNBBgpzOrha1pa-10" edge="1">
          <mxGeometry relative="1" as="geometry" />
        </mxCell>
        <mxCell id="fa2TgRjNBBgpzOrha1pa-16" style="edgeStyle=orthogonalEdgeStyle;rounded=0;orthogonalLoop=1;jettySize=auto;html=1;exitX=0.5;exitY=1;exitDx=0;exitDy=0;entryX=1;entryY=0.5;entryDx=0;entryDy=0;strokeWidth=2;dashed=1;strokeColor=#0405ff;" parent="1" source="fa2TgRjNBBgpzOrha1pa-18" target="fa2TgRjNBBgpzOrha1pa-6" edge="1">
          <mxGeometry relative="1" as="geometry" />
        </mxCell>
        <mxCell id="fa2TgRjNBBgpzOrha1pa-17" style="edgeStyle=orthogonalEdgeStyle;rounded=0;orthogonalLoop=1;jettySize=auto;html=1;exitX=0.75;exitY=1;exitDx=0;exitDy=0;entryX=1;entryY=0.5;entryDx=0;entryDy=0;strokeWidth=2;dashed=1;strokeColor=#0405ff;" parent="1" source="fa2TgRjNBBgpzOrha1pa-18" target="fa2TgRjNBBgpzOrha1pa-2" edge="1">
          <mxGeometry relative="1" as="geometry" />
        </mxCell>
        <mxCell id="fa2TgRjNBBgpzOrha1pa-18" value="&lt;font color=&quot;#052fff&quot;&gt;Feed&lt;br&gt;Assembler/Builder/Factory&lt;br&gt;&lt;/font&gt;" style="rounded=0;whiteSpace=wrap;html=1;fillColor=none;strokeColor=#052fff;strokeWidth=4;fontColor=#ffffff;" parent="1" vertex="1">
          <mxGeometry x="1091" y="147" width="200" height="80" as="geometry" />
        </mxCell>
        <mxCell id="8nE0R6XnKWqMKPDeoMGo-1" value="&lt;font style=&quot;font-size: 16px;&quot;&gt;FeedItemsMapper&lt;/font&gt;" style="rounded=0;whiteSpace=wrap;html=1;fillColor=none;strokeColor=#006EAF;strokeWidth=4;fontColor=#006EAF;fontSize=16;" vertex="1" parent="1">
          <mxGeometry x="197" y="257" width="189" height="39" as="geometry" />
        </mxCell>
        <mxCell id="8nE0R6XnKWqMKPDeoMGo-7" style="edgeStyle=orthogonalEdgeStyle;rounded=0;orthogonalLoop=1;jettySize=auto;html=1;strokeColor=#006EAF;strokeWidth=2;fontColor=#006EAF;fontSize=16;" edge="1" parent="1" source="8nE0R6XnKWqMKPDeoMGo-2">
          <mxGeometry relative="1" as="geometry">
            <mxPoint x="388" y="274.5" as="targetPoint" />
          </mxGeometry>
        </mxCell>
        <mxCell id="8nE0R6XnKWqMKPDeoMGo-10" style="edgeStyle=orthogonalEdgeStyle;rounded=0;orthogonalLoop=1;jettySize=auto;html=1;exitX=0.25;exitY=1;exitDx=0;exitDy=0;entryX=1;entryY=0.5;entryDx=0;entryDy=0;strokeColor=#006EAF;strokeWidth=2;fontColor=#006EAF;fontSize=16;" edge="1" parent="1" source="8nE0R6XnKWqMKPDeoMGo-2" target="8nE0R6XnKWqMKPDeoMGo-3">
          <mxGeometry relative="1" as="geometry" />
        </mxCell>
        <mxCell id="8nE0R6XnKWqMKPDeoMGo-2" value="&lt;font style=&quot;font-size: 16px;&quot;&gt;RemoteFeedLoader&lt;/font&gt;" style="rounded=0;whiteSpace=wrap;html=1;fillColor=none;strokeColor=#006EAF;strokeWidth=4;fontColor=#006EAF;fontSize=16;" vertex="1" parent="1">
          <mxGeometry x="469" y="255" width="193" height="39" as="geometry" />
        </mxCell>
        <mxCell id="8nE0R6XnKWqMKPDeoMGo-3" value="&lt;font style=&quot;font-size: 16px;&quot;&gt;&amp;lt;HTTPClient&amp;gt;&lt;/font&gt;" style="rounded=0;whiteSpace=wrap;html=1;fillColor=none;strokeColor=#006EAF;strokeWidth=4;fontColor=#006EAF;fontSize=16;" vertex="1" parent="1">
          <mxGeometry x="197" y="341" width="189" height="39" as="geometry" />
        </mxCell>
        <mxCell id="8nE0R6XnKWqMKPDeoMGo-4" value="" style="ellipse;shape=cloud;whiteSpace=wrap;html=1;gradientColor=#00b5e2;" vertex="1" parent="1">
          <mxGeometry x="223" y="501" width="120" height="80" as="geometry" />
        </mxCell>
        <mxCell id="8nE0R6XnKWqMKPDeoMGo-11" style="edgeStyle=orthogonalEdgeStyle;rounded=0;orthogonalLoop=1;jettySize=auto;html=1;entryX=0.5;entryY=1;entryDx=0;entryDy=0;strokeWidth=2;dashed=1;endArrow=block;endFill=0;strokeColor=#666666;" edge="1" parent="1" source="8nE0R6XnKWqMKPDeoMGo-8" target="8nE0R6XnKWqMKPDeoMGo-3">
          <mxGeometry relative="1" as="geometry" />
        </mxCell>
        <mxCell id="8nE0R6XnKWqMKPDeoMGo-12" style="edgeStyle=orthogonalEdgeStyle;rounded=0;orthogonalLoop=1;jettySize=auto;html=1;entryX=0.567;entryY=0.163;entryDx=0;entryDy=0;entryPerimeter=0;strokeWidth=2;strokeColor=#666666;" edge="1" parent="1" source="8nE0R6XnKWqMKPDeoMGo-8" target="8nE0R6XnKWqMKPDeoMGo-4">
          <mxGeometry relative="1" as="geometry" />
        </mxCell>
        <mxCell id="8nE0R6XnKWqMKPDeoMGo-8" value="?" style="rounded=0;whiteSpace=wrap;html=1;fillColor=#f5f5f5;strokeColor=#666666;strokeWidth=4;fontColor=#333333;" vertex="1" parent="1">
          <mxGeometry x="197" y="425" width="189" height="39" as="geometry" />
        </mxCell>
        <mxCell id="8nE0R6XnKWqMKPDeoMGo-17" value="" style="rounded=0;whiteSpace=wrap;html=1;fillColor=none;strokeWidth=4;strokeColor=#006EAF;" vertex="1" parent="1">
          <mxGeometry x="158" y="216" width="531" height="272" as="geometry" />
        </mxCell>
        <mxCell id="8nE0R6XnKWqMKPDeoMGo-18" value="Feed API module" style="text;html=1;strokeColor=none;fillColor=none;align=center;verticalAlign=middle;whiteSpace=wrap;rounded=0;strokeWidth=0;fontColor=#006EAF;fontStyle=0;fontSize=16;" vertex="1" parent="1">
          <mxGeometry x="156" y="186" width="127" height="30" as="geometry" />
        </mxCell>
      </root>
    </mxGraphModel>
  </diagram>
</mxfile>
